REM DIRINDEX 1\2,1\3,1\4,1\6,1\5\7,1\5\8
REM DIRNAME folder01,folder02,folder03,folder04,folder05,folder06,folder07,folder08
TITLE ""
FILE "DB4500_5th_5C_18.mp3" MP3
  TRACK 01 AUDIO
    TITLE "0:"
    INDEX 01 00:00:00
  TRACK 02 AUDIO
    TITLE "2:cjc114_3817"
    INDEX 01 00:00:03
  TRACK 03 AUDIO
    TITLE "0:"
    INDEX 01 00:01:21
  TRACK 04 AUDIO
    TITLE "3:cjc114_3818"
    INDEX 01 00:01:42
  TRACK 05 AUDIO
    TITLE "0:"
    INDEX 01 00:03:08
  TRACK 06 AUDIO
    TITLE "4:cjc114_3819"
    INDEX 01 00:03:29
  TRACK 07 AUDIO
    TITLE "0:"
    INDEX 01 00:05:61
  TRACK 08 AUDIO
    TITLE "2:cjc114_3820"
    INDEX 01 00:06:35
  TRACK 09 AUDIO
    TITLE "0:"
    INDEX 01 00:07:35
  TRACK 10 AUDIO
    TITLE "3:cjc114_3821"
    INDEX 01 00:07:58
  TRACK 11 AUDIO
    TITLE "0:"
    INDEX 01 00:08:66
  TRACK 12 AUDIO
    TITLE "4:cjc114_3822"
    INDEX 01 00:09:12
  TRACK 13 AUDIO
    TITLE "0:"
    INDEX 01 00:12:05
  TRACK 14 AUDIO
    TITLE "2:cjc114_3823"
    INDEX 01 00:12:50
  TRACK 15 AUDIO
    TITLE "0:"
    INDEX 01 00:13:51
  TRACK 16 AUDIO
    TITLE "3:cjc114_3824"
    INDEX 01 00:14:02
  TRACK 17 AUDIO
    TITLE "0:"
    INDEX 01 00:15:30
  TRACK 18 AUDIO
    TITLE "4:cjc114_3825"
    INDEX 01 00:15:54
  TRACK 19 AUDIO
    TITLE "0:"
    INDEX 01 00:19:09
  TRACK 20 AUDIO
    TITLE "2:cjc114_3826"
    INDEX 01 00:19:56
  TRACK 21 AUDIO
    TITLE "0:"
    INDEX 01 00:21:04
  TRACK 22 AUDIO
    TITLE "3:cjc114_3827"
    INDEX 01 00:21:25
  TRACK 23 AUDIO
    TITLE "0:"
    INDEX 01 00:22:36
  TRACK 24 AUDIO
    TITLE "4:cjc114_3828"
    INDEX 01 00:22:56
  TRACK 25 AUDIO
    TITLE "0:"
    INDEX 01 00:26:22
  TRACK 26 AUDIO
    TITLE "2:cjc114_3829"
    INDEX 01 00:26:67
  TRACK 27 AUDIO
    TITLE "0:"
    INDEX 01 00:28:17
  TRACK 28 AUDIO
    TITLE "3:cjc114_3830"
    INDEX 01 00:28:39
  TRACK 29 AUDIO
    TITLE "0:"
    INDEX 01 00:29:58
  TRACK 30 AUDIO
    TITLE "4:cjc114_3831"
    INDEX 01 00:30:05
  TRACK 31 AUDIO
    TITLE "0:"
    INDEX 01 00:33:21
  TRACK 32 AUDIO
    TITLE "2:cjc114_3832"
    INDEX 01 00:34:04
  TRACK 33 AUDIO
    TITLE "0:"
    INDEX 01 00:35:00
  TRACK 34 AUDIO
    TITLE "3:cjc114_3833"
    INDEX 01 00:35:23
  TRACK 35 AUDIO
    TITLE "0:"
    INDEX 01 00:36:36
  TRACK 36 AUDIO
    TITLE "4:cjc114_3834"
    INDEX 01 00:36:60
  TRACK 37 AUDIO
    TITLE "0:"
    INDEX 01 00:39:29
  TRACK 38 AUDIO
    TITLE "2:cjc114_3835"
    INDEX 01 00:40:01
  TRACK 39 AUDIO
    TITLE "0:"
    INDEX 01 00:41:00
  TRACK 40 AUDIO
    TITLE "3:cjc114_3836"
    INDEX 01 00:41:24
  TRACK 41 AUDIO
    TITLE "0:"
    INDEX 01 00:42:47
  TRACK 42 AUDIO
    TITLE "4:cjc114_3837"
    INDEX 01 00:42:70
  TRACK 43 AUDIO
    TITLE "0:"
    INDEX 01 00:46:41
  TRACK 44 AUDIO
    TITLE "2:cjc114_3838"
    INDEX 01 00:47:11
  TRACK 45 AUDIO
    TITLE "0:"
    INDEX 01 00:48:40
  TRACK 46 AUDIO
    TITLE "3:cjc114_3839"
    INDEX 01 00:48:61
  TRACK 47 AUDIO
    TITLE "0:"
    INDEX 01 00:50:17
  TRACK 48 AUDIO
    TITLE "4:cjc114_3840"
    INDEX 01 00:50:39
  TRACK 49 AUDIO
    TITLE "0:"
    INDEX 01 00:54:15
  TRACK 50 AUDIO
    TITLE "2:cjc114_3841"
    INDEX 01 00:54:58
  TRACK 51 AUDIO
    TITLE "0:"
    INDEX 01 00:55:65
  TRACK 52 AUDIO
    TITLE "3:cjc114_3842"
    INDEX 01 00:56:16
  TRACK 53 AUDIO
    TITLE "0:"
    INDEX 01 00:57:70
  TRACK 54 AUDIO
    TITLE "4:cjc114_3843"
    INDEX 01 00:58:18
  TRACK 55 AUDIO
    TITLE "0:"
    INDEX 01 01:01:46
  TRACK 56 AUDIO
    TITLE "2:cjc114_3844"
    INDEX 01 01:02:16
  TRACK 57 AUDIO
    TITLE "0:"
    INDEX 01 01:03:29
  TRACK 58 AUDIO
    TITLE "3:cjc114_3845"
    INDEX 01 01:03:43
  TRACK 59 AUDIO
    TITLE "0:"
    INDEX 01 01:04:58
  TRACK 60 AUDIO
    TITLE "4:cjc114_3846"
    INDEX 01 01:04:72
  TRACK 61 AUDIO
    TITLE "0:"
    INDEX 01 01:08:58
  TRACK 62 AUDIO
    TITLE "2:cjc114_3847"
    INDEX 01 01:09:18
  TRACK 63 AUDIO
    TITLE "0:"
    INDEX 01 01:10:24
  TRACK 64 AUDIO
    TITLE "3:cjc114_3848"
    INDEX 01 01:10:37
  TRACK 65 AUDIO
    TITLE "0:"
    INDEX 01 01:11:58
  TRACK 66 AUDIO
    TITLE "4:cjc114_3849"
    INDEX 01 01:11:72
  TRACK 67 AUDIO
    TITLE "0:"
    INDEX 01 01:15:40
  TRACK 68 AUDIO
    TITLE "2:cjc114_3850"
    INDEX 01 01:16:05
  TRACK 69 AUDIO
    TITLE "0:"
    INDEX 01 01:17:20
  TRACK 70 AUDIO
    TITLE "3:cjc114_3851"
    INDEX 01 01:17:35
  TRACK 71 AUDIO
    TITLE "0:"
    INDEX 01 01:18:41
  TRACK 72 AUDIO
    TITLE "4:cjc114_3852"
    INDEX 01 01:18:54
  TRACK 73 AUDIO
    TITLE "0:"
    INDEX 01 01:20:59
  TRACK 74 AUDIO
    TITLE "2:cjc114_3853"
    INDEX 01 01:21:20
  TRACK 75 AUDIO
    TITLE "0:"
    INDEX 01 01:22:50
  TRACK 76 AUDIO
    TITLE "3:cjc114_3854"
    INDEX 01 01:22:66
  TRACK 77 AUDIO
    TITLE "0:"
    INDEX 01 01:23:71
  TRACK 78 AUDIO
    TITLE "4:cjc114_3855"
    INDEX 01 01:24:16
  TRACK 79 AUDIO
    TITLE "0:"
    INDEX 01 01:28:16
  TRACK 80 AUDIO
    TITLE "2:cjc114_3856"
    INDEX 01 01:28:53
  TRACK 81 AUDIO
    TITLE "0:"
    INDEX 01 01:29:58
  TRACK 82 AUDIO
    TITLE "3:cjc114_3857"
    INDEX 01 01:29:72
  TRACK 83 AUDIO
    TITLE "0:"
    INDEX 01 01:31:06
  TRACK 84 AUDIO
    TITLE "4:cjc114_3858"
    INDEX 01 01:31:20
  TRACK 85 AUDIO
    TITLE "0:"
    INDEX 01 01:34:69
